<svg id="Icon_ionic-ios-arrow-dropdown" data-name="Icon ionic-ios-arrow-dropdown" xmlns="http://www.w3.org/2000/svg" width="57.478" height="57.478" viewBox="0 0 57.478 57.478">
  <path id="Path_13" data-name="Path 13" d="M10.76,15.2a2.677,2.677,0,0,0,0,3.772L23.982,32.156a2.664,2.664,0,0,0,3.675.083L40.687,19.251a2.662,2.662,0,1,0-3.758-3.772L25.737,26.5,14.532,15.189A2.664,2.664,0,0,0,10.76,15.2Z" transform="translate(3.002 7.277)" fill="#3a3f42"/>
  <g id="Component_6_1" data-name="Component 6 – 1">
    <path id="Path_14" data-name="Path 14" d="M3.375,32.114A28.739,28.739,0,1,0,32.114,3.375,28.734,28.734,0,0,0,3.375,32.114ZM49.3,14.926A24.308,24.308,0,1,1,14.926,49.3,24.308,24.308,0,1,1,49.3,14.926Z" transform="translate(-3.375 -3.375)" fill="#3a3f42"/>
  </g>
</svg>
